<svg width="1000" height="1000" viewBox="0 0 1000 1000" xmlns="http://www.w3.org/2000/svg">
  <defs>
    <pattern id="vinePattern" x="0" y="0" width="200" height="200" patternUnits="userSpaceOnUse">
      <!-- Vine 1 -->
      <path d="M 10,100 Q 50,50 100,100 T 190,100" fill="none" stroke="#2E7D32" stroke-width="2" opacity="0.2"/>
      <!-- Leaves on Vine 1 -->
      <path d="M 40,80 Q 50,60 60,80 T 40,80" fill="#4CAF50" opacity="0.15"/>
      <path d="M 140,80 Q 150,60 160,80 T 140,80" fill="#4CAF50" opacity="0.15"/>
      <!-- Vine 2 -->
      <path d="M 0,20 Q 40,70 90,20 T 180,20" fill="none" stroke="#2E7D32" stroke-width="2" opacity="0.2"/>
      <!-- Leaves on Vine 2 -->
      <path d="M 30,40 Q 40,20 50,40 T 30,40" fill="#4CAF50" opacity="0.15"/>
      <path d="M 130,40 Q 140,20 150,40 T 130,40" fill="#4CAF50" opacity="0.15"/>
      <!-- Small decorative circles -->
      <circle cx="70" cy="90" r="2" fill="#81C784" opacity="0.2"/>
      <circle cx="170" cy="30" r="2" fill="#81C784" opacity="0.2"/>
    </pattern>
  </defs>
  <!-- Apply the pattern to fill the entire SVG -->
  <rect width="100%" height="100%" fill="url(#vinePattern)"/>
</svg>